<svg viewBox="0 0 21 21" fill="none" xmlns="http://www.w3.org/2000/svg">
<path d="M0 1.5C0 1.10218 0.158035 0.720644 0.43934 0.43934C0.720644 0.158035 1.10218 0 1.5 0H4.5C4.89782 0 5.27936 0.158035 5.56066 0.43934C5.84196 0.720644 6 1.10218 6 1.5V4.5C6 4.89782 5.84196 5.27936 5.56066 5.56066C5.27936 5.84196 4.89782 6 4.5 6H1.5C1.10218 6 0.720644 5.84196 0.43934 5.56066C0.158035 5.27936 0 4.89782 0 4.5V1.5ZM7.5 1.5C7.5 1.10218 7.65804 0.720644 7.93934 0.43934C8.22064 0.158035 8.60218 0 9 0H12C12.3978 0 12.7794 0.158035 13.0607 0.43934C13.342 0.720644 13.5 1.10218 13.5 1.5V4.5C13.5 4.89782 13.342 5.27936 13.0607 5.56066C12.7794 5.84196 12.3978 6 12 6H9C8.60218 6 8.22064 5.84196 7.93934 5.56066C7.65804 5.27936 7.5 4.89782 7.5 4.5V1.5ZM15 1.5C15 1.10218 15.158 0.720644 15.4393 0.43934C15.7206 0.158035 16.1022 0 16.5 0H19.5C19.8978 0 20.2794 0.158035 20.5607 0.43934C20.842 0.720644 21 1.10218 21 1.5V4.5C21 4.89782 20.842 5.27936 20.5607 5.56066C20.2794 5.84196 19.8978 6 19.5 6H16.5C16.1022 6 15.7206 5.84196 15.4393 5.56066C15.158 5.27936 15 4.89782 15 4.5V1.5ZM0 9C0 8.60218 0.158035 8.22064 0.43934 7.93934C0.720644 7.65804 1.10218 7.5 1.5 7.5H4.5C4.89782 7.5 5.27936 7.65804 5.56066 7.93934C5.84196 8.22064 6 8.60218 6 9V12C6 12.3978 5.84196 12.7794 5.56066 13.0607C5.27936 13.342 4.89782 13.5 4.5 13.5H1.5C1.10218 13.5 0.720644 13.342 0.43934 13.0607C0.158035 12.7794 0 12.3978 0 12V9ZM7.5 9C7.5 8.60218 7.65804 8.22064 7.93934 7.93934C8.22064 7.65804 8.60218 7.5 9 7.5H12C12.3978 7.5 12.7794 7.65804 13.0607 7.93934C13.342 8.22064 13.5 8.60218 13.5 9V12C13.5 12.3978 13.342 12.7794 13.0607 13.0607C12.7794 13.342 12.3978 13.5 12 13.5H9C8.60218 13.5 8.22064 13.342 7.93934 13.0607C7.65804 12.7794 7.5 12.3978 7.5 12V9ZM15 9C15 8.60218 15.158 8.22064 15.4393 7.93934C15.7206 7.65804 16.1022 7.5 16.5 7.5H19.5C19.8978 7.5 20.2794 7.65804 20.5607 7.93934C20.842 8.22064 21 8.60218 21 9V12C21 12.3978 20.842 12.7794 20.5607 13.0607C20.2794 13.342 19.8978 13.5 19.5 13.5H16.5C16.1022 13.5 15.7206 13.342 15.4393 13.0607C15.158 12.7794 15 12.3978 15 12V9ZM0 16.5C0 16.1022 0.158035 15.7206 0.43934 15.4393C0.720644 15.158 1.10218 15 1.5 15H4.5C4.89782 15 5.27936 15.158 5.56066 15.4393C5.84196 15.7206 6 16.1022 6 16.5V19.5C6 19.8978 5.84196 20.2794 5.56066 20.5607C5.27936 20.842 4.89782 21 4.5 21H1.5C1.10218 21 0.720644 20.842 0.43934 20.5607C0.158035 20.2794 0 19.8978 0 19.5V16.5ZM7.5 16.5C7.5 16.1022 7.65804 15.7206 7.93934 15.4393C8.22064 15.158 8.60218 15 9 15H12C12.3978 15 12.7794 15.158 13.0607 15.4393C13.342 15.7206 13.5 16.1022 13.5 16.5V19.5C13.5 19.8978 13.342 20.2794 13.0607 20.5607C12.7794 20.842 12.3978 21 12 21H9C8.60218 21 8.22064 20.842 7.93934 20.5607C7.65804 20.2794 7.5 19.8978 7.5 19.5V16.5ZM15 16.5C15 16.1022 15.158 15.7206 15.4393 15.4393C15.7206 15.158 16.1022 15 16.5 15H19.5C19.8978 15 20.2794 15.158 20.5607 15.4393C20.842 15.7206 21 16.1022 21 16.5V19.5C21 19.8978 20.842 20.2794 20.5607 20.5607C20.2794 20.842 19.8978 21 19.5 21H16.5C16.1022 21 15.7206 20.842 15.4393 20.5607C15.158 20.2794 15 19.8978 15 19.5V16.5Z" fill="currentColor"/>
</svg>
