<svg viewBox="0 0 18 18" fill="none" xmlns="http://www.w3.org/2000/svg">
<path d="M10 12.25C10 11.6533 10.2371 11.081 10.659 10.659C11.081 10.2371 11.6533 10 12.25 10L15.75 10C16.3467 10 16.919 10.2371 17.341 10.659C17.7629 11.081 18 11.6533 18 12.25L18 15.75C18 16.3467 17.7629 16.919 17.341 17.341C16.919 17.7629 16.3467 18 15.75 18L12.25 18C11.6533 18 11.081 17.7629 10.659 17.341C10.2371 16.919 10 16.3467 10 15.75L10 12.25ZM10 2.25C10 1.65326 10.2371 1.08097 10.659 0.65901C11.081 0.237053 11.6533 1.79073e-07 12.25 1.52989e-07L15.75 0C16.3467 -2.60843e-08 16.919 0.237053 17.341 0.659009C17.7629 1.08097 18 1.65326 18 2.25L18 5.75C18 6.34674 17.7629 6.91903 17.341 7.34099C16.919 7.76295 16.3467 8 15.75 8L12.25 8C11.6533 8 11.081 7.76295 10.659 7.34099C10.2371 6.91903 10 6.34674 10 5.75L10 2.25ZM4.37114e-07 12.25C4.1103e-07 11.6533 0.237053 11.081 0.65901 10.659C1.08097 10.2371 1.65326 10 2.25 10L5.75 10C6.34674 10 6.91903 10.2371 7.34099 10.659C7.76295 11.081 8 11.6533 8 12.25L8 15.75C8 16.3467 7.76295 16.919 7.34099 17.341C6.91903 17.7629 6.34674 18 5.75 18L2.25 18C1.65326 18 1.08097 17.7629 0.65901 17.341C0.237054 16.919 6.16188e-07 16.3467 5.90104e-07 15.75L4.37114e-07 12.25ZM0 2.25C-2.60842e-08 1.65326 0.237053 1.08097 0.65901 0.65901C1.08097 0.237053 1.65326 6.16187e-07 2.25 5.90103e-07L5.75 4.37114e-07C6.34674 4.1103e-07 6.91903 0.237053 7.34099 0.65901C7.76295 1.08097 8 1.65326 8 2.25L8 5.75C8 6.34674 7.76295 6.91903 7.34099 7.34099C6.91903 7.76295 6.34674 8 5.75 8L2.25 8C1.65326 8 1.08097 7.76295 0.65901 7.34099C0.237053 6.91903 1.79074e-07 6.34674 1.5299e-07 5.75L0 2.25Z" fill="currentColor"/>
<path d="M3 18L3 10.002L15 10.002L15 18L3 18Z" fill="currentColor"/>
<path d="M3 7.99805L3 5.5732e-07L15 3.27826e-08L15 7.99805L3 7.99805Z" fill="currentColor"/>
</svg>
