<svg width="14" height="9" viewBox="0 0 14 9" fill="none" xmlns="http://www.w3.org/2000/svg">
<path fill-rule="evenodd" clip-rule="evenodd" d="M9.09094 0.265206C9.49676 -0.109401 10.1294 -0.084098 10.504 0.321721L13.7348 3.82168C14.0884 4.20474 14.0884 4.79518 13.7348 5.17824L10.504 8.67828C10.1294 9.0841 9.49677 9.10941 9.09095 8.73481C8.68513 8.36021 8.65982 7.72755 9.03442 7.32173L10.716 5.49997L1 5.49997C0.447715 5.49997 2.26449e-08 5.05225 0 4.49997C-2.26448e-08 3.94768 0.447715 3.49997 1 3.49997L10.716 3.49997L9.03443 1.67829C8.65982 1.27247 8.68513 0.639812 9.09094 0.265206Z" fill="#FEFEFE"/>
</svg>
