<svg width="39" height="39" viewBox="0 0 39 39" fill="none" xmlns="http://www.w3.org/2000/svg">
<path d="M37.25 33.25V29.9581C37.25 28.3225 36.2542 26.8517 34.7356 26.2442L30.6673 24.6169C28.7357 23.8443 26.5344 24.6812 25.604 26.542L25.25 27.25C25.25 27.25 20.25 26.25 16.25 22.25C12.25 18.25 11.25 13.25 11.25 13.25L11.958 12.896C13.8188 11.9656 14.6557 9.76427 13.8831 7.83271L12.2558 3.76444C11.6483 2.24581 10.1775 1.25 8.54187 1.25H5.25C3.04086 1.25 1.25 3.04086 1.25 5.25C1.25 22.9231 15.5769 37.25 33.25 37.25C35.4591 37.25 37.25 35.4591 37.25 33.25Z" stroke="#141718" stroke-width="2.5" stroke-linejoin="round"/>
</svg>
