<svg width="20" height="16" viewBox="0 0 20 16" fill="none" xmlns="http://www.w3.org/2000/svg">
<path fill-rule="evenodd" clip-rule="evenodd" d="M16.75 0C18.2688 0 19.5 1.23122 19.5 2.75V12.75C19.5 14.2688 18.2688 15.5 16.75 15.5H2.75C1.23125 15.5 0 14.2688 0 12.75V2.75C0 1.23124 1.23125 4.31001e-05 2.75 0H16.75ZM10.166 9.37402C9.9141 9.54194 9.58589 9.54196 9.33398 9.37402L1.5 4.15137V12.75C1.5 13.4403 2.05968 14 2.75 14H16.75C17.4404 14 18 13.4404 18 12.75V4.15137L10.166 9.37402ZM2.75 1.5C2.18678 1.50004 1.71095 1.87267 1.55469 2.38477L9.75 7.84863L17.9453 2.38379C17.7887 1.87216 17.3129 1.5 16.75 1.5H2.75Z" fill="#141718"/>
</svg>
