<svg width="43" height="39" viewBox="0 0 43 39" fill="none" xmlns="http://www.w3.org/2000/svg">
<path d="M25.25 33.25V9.25M25.25 33.25H29.25M25.25 33.25H15.25M25.25 9.25C25.25 4.83172 21.6683 1.25 17.25 1.25H9.25C4.83172 1.25 1.25 4.83172 1.25 9.25V25.25C1.25 28.9804 3.80333 32.1145 7.25769 32.9999M25.25 9.25H31.6682C32.6844 9.25 33.6626 9.6368 34.404 10.3319L39.9858 15.5648C40.7924 16.321 41.25 17.3773 41.25 18.4829V29.25C41.25 31.4591 39.4591 33.25 37.25 33.25M37.25 33.25C37.25 35.4591 35.4591 37.25 33.25 37.25C31.0409 37.25 29.25 35.4591 29.25 33.25M37.25 33.25C37.25 31.0409 35.4591 29.25 33.25 29.25C31.0409 29.25 29.25 31.0409 29.25 33.25M15.25 33.25C15.25 35.4591 13.4591 37.25 11.25 37.25C9.04086 37.25 7.25 35.4591 7.25 33.25C7.25 33.166 7.25259 33.0826 7.25769 32.9999M15.25 33.25C15.25 31.0409 13.4591 29.25 11.25 29.25C9.12484 29.25 7.38677 30.9073 7.25769 32.9999M17.25 11.25H13.25M17.25 19.25H9.25" stroke="#141718" stroke-width="2.5" stroke-linecap="round"/>
</svg>
