<svg viewBox="0 0 22 22" fill="none" xmlns="http://www.w3.org/2000/svg">
<path d="M17.75 4.75C17.75 5.30228 17.3023 5.75 16.75 5.75C16.1977 5.75 15.75 5.30228 15.75 4.75C15.75 4.19772 16.1977 3.75 16.75 3.75C17.3023 3.75 17.75 4.19772 17.75 4.75Z" fill="currentColor"/>
<path d="M0.75 4.75C0.75 2.54086 2.54086 0.75 4.75 0.75H16.75C18.9591 0.75 20.75 2.54086 20.75 4.75V16.75C20.75 18.9591 18.9591 20.75 16.75 20.75H4.75C2.54086 20.75 0.75 18.9591 0.75 16.75V4.75Z" stroke="currentColor" stroke-width="1.5"/>
<path d="M17.75 4.75C17.75 5.30228 17.3023 5.75 16.75 5.75C16.1977 5.75 15.75 5.30228 15.75 4.75C15.75 4.19772 16.1977 3.75 16.75 3.75C17.3023 3.75 17.75 4.19772 17.75 4.75Z" stroke="currentColor" stroke-width="1.5"/>
<path d="M15.75 10.75C15.75 13.5114 13.5114 15.75 10.75 15.75C7.98858 15.75 5.75 13.5114 5.75 10.75C5.75 7.98858 7.98858 5.75 10.75 5.75C13.5114 5.75 15.75 7.98858 15.75 10.75Z" stroke="currentColor" stroke-width="1.5"/>
</svg>
