<svg width="21" height="20" viewBox="0 0 21 20" fill="none" xmlns="http://www.w3.org/2000/svg">
<path d="M7.77939 3.75C7.77939 3.33579 7.4436 3 7.02939 3C6.61518 3 6.27939 3.33579 6.27939 3.75H7.02939H7.77939ZM10.0294 7.75L10.0294 8.5L10.0294 7.75ZM17.5865 4.0924L18.3263 3.9691L18.3263 3.9691L17.5865 4.0924ZM19.2531 14.0924L18.5133 14.2157L18.5133 14.2157L19.2531 14.0924ZM2.47232 4.0924L1.73253 3.9691L1.73253 3.9691L2.47232 4.0924ZM0.805658 14.0924L1.54545 14.2157L1.54545 14.2157L0.805658 14.0924ZM7.02939 4.75H7.77939V3.75H7.02939H6.27939V4.75H7.02939ZM13.0294 3.75H12.2794V4.75H13.0294H13.7794V3.75H13.0294ZM10.0294 7.75L10.0294 7C8.78675 7 7.77939 5.99264 7.77939 4.75H7.02939H6.27939C6.27939 6.82107 7.95832 8.5 10.0294 8.5L10.0294 7.75ZM10.0294 7.75L10.0294 8.5C12.1005 8.5 13.7794 6.82107 13.7794 4.75H13.0294H12.2794C12.2794 5.99264 11.272 7 10.0294 7L10.0294 7.75ZM6.4179 0.75V1.5H13.6409V0.75V0H6.4179V0.75ZM17.5865 4.0924L16.8467 4.2157L18.5133 14.2157L19.2531 14.0924L19.9929 13.9691L18.3263 3.9691L17.5865 4.0924ZM15.3076 18.75V18H4.75123V18.75V19.5H15.3076V18.75ZM2.47232 4.0924L1.73253 3.9691L0.0658629 13.9691L0.805658 14.0924L1.54545 14.2157L3.21212 4.2157L2.47232 4.0924ZM6.4179 0.75V0C4.09591 0 2.11426 1.67871 1.73253 3.9691L2.47232 4.0924L3.21212 4.2157C3.47331 2.64859 4.82917 1.5 6.4179 1.5V0.75ZM13.6409 0.75V1.5C15.2296 1.5 16.5855 2.64859 16.8467 4.2157L17.5865 4.0924L18.3263 3.9691C17.9445 1.67871 15.9629 0 13.6409 0V0.75ZM19.2531 14.0924L18.5133 14.2157C18.8435 16.1967 17.3159 18 15.3076 18V18.75V19.5C18.2428 19.5 20.4755 16.8644 19.9929 13.9691L19.2531 14.0924ZM4.75123 18.75V18C2.74293 18 1.21529 16.1967 1.54545 14.2157L0.805658 14.0924L0.0658629 13.9691C-0.416683 16.8644 1.81602 19.5 4.75123 19.5V18.75Z" fill="#141718"/>
</svg>
