<svg viewBox="0 0 14 14" fill="none" xmlns="http://www.w3.org/2000/svg">
<path d="M6.40924 0.307985C6.58004 -0.102661 7.16177 -0.102662 7.33256 0.307984L8.86965 4.00358C8.94165 4.1767 9.10446 4.29498 9.29135 4.30996L13.2811 4.62982C13.7244 4.66536 13.9041 5.21861 13.5664 5.50795L10.5266 8.1118C10.3842 8.23378 10.3221 8.42517 10.3656 8.60754L11.2943 12.5008C11.3974 12.9334 10.9268 13.2754 10.5473 13.0435L7.13153 10.9572C6.97152 10.8595 6.77028 10.8595 6.61028 10.9572L3.19453 13.0435C2.81498 13.2754 2.34436 12.9334 2.44755 12.5008L3.37624 8.60754C3.41974 8.42517 3.35756 8.23378 3.21516 8.1118L0.17543 5.50795C-0.162339 5.21861 0.0174233 4.66536 0.46075 4.62982L4.45045 4.30996C4.63735 4.29498 4.80015 4.1767 4.87216 4.00358L6.40924 0.307985Z" fill="currentColor"/>
</svg>
