<svg viewBox="0 0 24 20" fill="none" xmlns="http://www.w3.org/2000/svg">
<path d="M8.75 6.75C8.75 7.30228 8.30228 7.75 7.75 7.75C7.19772 7.75 6.75 7.30228 6.75 6.75C6.75 6.19772 7.19772 5.75 7.75 5.75C8.30228 5.75 8.75 6.19772 8.75 6.75Z" fill="#28303F"/>
<path d="M14.75 12.75C14.75 13.3023 14.3023 13.75 13.75 13.75C13.1977 13.75 12.75 13.3023 12.75 12.75C12.75 12.1977 13.1977 11.75 13.75 11.75C14.3023 11.75 14.75 12.1977 14.75 12.75Z" fill="#28303F"/>
<path d="M13.75 6.75L7.75 12.75M4.75 18.75C2.54086 18.75 0.75 16.9591 0.75 14.75V13.75C0.75 13.1977 1.21 12.7663 1.73189 12.5856C2.90653 12.1789 3.75 11.063 3.75 9.75C3.75 8.43703 2.90653 7.32105 1.73189 6.91437C1.21 6.73368 0.75 6.30228 0.75 5.75V4.75C0.75 2.54086 2.54086 0.75 4.75 0.75H16.75C18.9591 0.75 20.75 2.54086 20.75 4.75V5.75C20.75 6.30228 20.29 6.73368 19.7681 6.91437C18.5935 7.32105 17.75 8.43703 17.75 9.75C17.75 11.063 18.5935 12.1789 19.7681 12.5856C20.29 12.7663 20.75 13.1977 20.75 13.75V14.75C20.75 16.9591 18.9591 18.75 16.75 18.75H4.75ZM8.75 6.75C8.75 7.30228 8.30228 7.75 7.75 7.75C7.19772 7.75 6.75 7.30228 6.75 6.75C6.75 6.19772 7.19772 5.75 7.75 5.75C8.30228 5.75 8.75 6.19772 8.75 6.75ZM14.75 12.75C14.75 13.3023 14.3023 13.75 13.75 13.75C13.1977 13.75 12.75 13.3023 12.75 12.75C12.75 12.1977 13.1977 11.75 13.75 11.75C14.3023 11.75 14.75 12.1977 14.75 12.75Z" stroke="#141718" stroke-width="1.5" stroke-linecap="round"/>
</svg>
