<svg viewBox="0 0 16 16" fill="currentColor" xmlns="http://www.w3.org/2000/svg">
<path d="M14.012 9.89042L13.7667 10.5991L13.7667 10.5991L14.012 9.89042ZM14.012 6.10958L14.2574 6.81831L14.2574 6.81831L14.012 6.10958ZM1.98791 9.89042L2.23328 10.5991L2.23328 10.5991L1.98791 9.89042ZM1.98791 6.10958L1.74254 6.81831L1.74254 6.81831L1.98791 6.10958ZM10.5303 6.53033C10.8232 6.23744 10.8232 5.76256 10.5303 5.46967C10.2374 5.17678 9.76254 5.17678 9.46965 5.46967L9.99998 6L10.5303 6.53033ZM5.46965 9.46967C5.17676 9.76256 5.17676 10.2374 5.46965 10.5303C5.76254 10.8232 6.23742 10.8232 6.53031 10.5303L5.99998 10L5.46965 9.46967ZM3.99998 14V13.25C2.94143 13.25 2.08331 12.3919 2.08331 11.3333H1.33331H0.583313C0.583313 13.2203 2.11301 14.75 3.99998 14.75V14ZM14.6666 11.3333H13.9166C13.9166 12.3919 13.0585 13.25 12 13.25V14V14.75C13.887 14.75 15.4166 13.2203 15.4166 11.3333H14.6666ZM12 2V2.75C13.0585 2.75 13.9166 3.60812 13.9166 4.66667H14.6666H15.4166C15.4166 2.77969 13.887 1.25 12 1.25V2ZM3.99998 2V1.25C2.11301 1.25 0.583313 2.77969 0.583313 4.66667H1.33331H2.08331C2.08331 3.60812 2.94143 2.75 3.99998 2.75V2ZM14.012 9.89042L14.2574 9.18169C13.767 9.01191 13.4166 8.54591 13.4166 8H12.6666H11.9166C11.9166 9.20473 12.6909 10.2267 13.7667 10.5991L14.012 9.89042ZM12.6666 8H13.4166C13.4166 7.45409 13.767 6.98809 14.2574 6.81831L14.012 6.10958L13.7667 5.40086C12.6909 5.77332 11.9166 6.79527 11.9166 8H12.6666ZM3.33331 8H2.58331C2.58331 8.54591 2.23292 9.01191 1.74254 9.18169L1.98791 9.89042L2.23328 10.5991C3.30908 10.2267 4.08331 9.20473 4.08331 8H3.33331ZM1.98791 6.10958L1.74254 6.81831C2.23292 6.98809 2.58331 7.45409 2.58331 8H3.33331H4.08331C4.08331 6.79527 3.30908 5.77332 2.23328 5.40086L1.98791 6.10958ZM14.6666 5.33333H15.4166V4.66667H14.6666H13.9166V5.33333H14.6666ZM14.6666 10.6667H13.9166V11.3333H14.6666H15.4166V10.6667H14.6666ZM1.33331 10.6667H0.583313V11.3333H1.33331H2.08331V10.6667H1.33331ZM1.33331 5.33333H2.08331V4.66667H1.33331H0.583313V5.33333H1.33331ZM12 14V13.25H3.99998V14V14.75H12V14ZM12 2V1.25H3.99998V2V2.75H12V2ZM1.98791 9.89042L1.74254 9.18169C1.23782 9.35643 0.583313 9.84831 0.583313 10.6667H1.33331H2.08331C2.08331 10.6809 2.07995 10.6932 2.07715 10.6998C2.07494 10.705 2.07577 10.7005 2.08662 10.6885C2.11142 10.661 2.16274 10.6236 2.23328 10.5991L1.98791 9.89042ZM14.012 6.10958L14.2574 6.81831C14.7621 6.64357 15.4166 6.15169 15.4166 5.33333H14.6666H13.9166C13.9166 5.31907 13.92 5.30681 13.9228 5.30022C13.925 5.29499 13.9242 5.29953 13.9133 5.31154C13.8885 5.33899 13.8372 5.37643 13.7667 5.40086L14.012 6.10958ZM1.98791 6.10958L2.23328 5.40086C2.16274 5.37643 2.11142 5.33899 2.08662 5.31154C2.07577 5.29953 2.07494 5.29499 2.07715 5.30022C2.07995 5.30681 2.08331 5.31907 2.08331 5.33333H1.33331H0.583313C0.583313 6.15169 1.23782 6.64357 1.74254 6.81831L1.98791 6.10958ZM14.012 9.89042L13.7667 10.5991C13.8372 10.6236 13.8885 10.661 13.9133 10.6885C13.9242 10.7005 13.925 10.705 13.9228 10.6998C13.92 10.6932 13.9166 10.6809 13.9166 10.6667H14.6666H15.4166C15.4166 9.84831 14.7621 9.35643 14.2574 9.18169L14.012 9.89042ZM6.66665 6H5.91665C5.91665 5.95398 5.95396 5.91667 5.99998 5.91667V6.66667V7.41667C6.78238 7.41667 7.41665 6.7824 7.41665 6H6.66665ZM5.99998 6.66667V5.91667C6.046 5.91667 6.08331 5.95398 6.08331 6H5.33331H4.58331C4.58331 6.7824 5.21758 7.41667 5.99998 7.41667V6.66667ZM5.33331 6H6.08331C6.08331 6.04602 6.046 6.08333 5.99998 6.08333V5.33333V4.58333C5.21758 4.58333 4.58331 5.2176 4.58331 6H5.33331ZM5.99998 5.33333V6.08333C5.95396 6.08333 5.91665 6.04602 5.91665 6H6.66665H7.41665C7.41665 5.2176 6.78238 4.58333 5.99998 4.58333V5.33333ZM10.6666 10H9.91665C9.91665 9.95398 9.95396 9.91667 9.99998 9.91667V10.6667V11.4167C10.7824 11.4167 11.4166 10.7824 11.4166 10H10.6666ZM9.99998 10.6667V9.91667C10.046 9.91667 10.0833 9.95398 10.0833 10H9.33331H8.58331C8.58331 10.7824 9.21758 11.4167 9.99998 11.4167V10.6667ZM9.33331 10H10.0833C10.0833 10.046 10.046 10.0833 9.99998 10.0833V9.33333V8.58333C9.21758 8.58333 8.58331 9.2176 8.58331 10H9.33331ZM9.99998 9.33333V10.0833C9.95396 10.0833 9.91665 10.046 9.91665 10H10.6666H11.4166C11.4166 9.2176 10.7824 8.58333 9.99998 8.58333V9.33333ZM9.99998 6L9.46965 5.46967L5.46965 9.46967L5.99998 10L6.53031 10.5303L10.5303 6.53033L9.99998 6Z" fill="currentColor"/>
</svg>
